<mxfile host="app.diagrams.net" modified="2021-06-28T14:11:19.954Z" agent="5.0 (Macintosh; Intel Mac OS X 10_15_7) AppleWebKit/537.36 (KHTML, like Gecko) Chrome/91.0.4472.114 Safari/537.36" etag="GW7pn6i1vQFwBtJk1DwX" version="14.8.0" type="github">
  <diagram id="SymWtLbQICoTOxsduoH1" name="Page-1">
    <mxGraphModel dx="786" dy="449" grid="1" gridSize="10" guides="1" tooltips="1" connect="1" arrows="1" fold="1" page="1" pageScale="1" pageWidth="850" pageHeight="1100" math="0" shadow="0">
      <root>
        <mxCell id="0" />
        <mxCell id="1" parent="0" />
        <mxCell id="B5fJH4kxP5eTqqaV1vvk-1" value="Modelo" style="shape=folder;fontStyle=1;spacingTop=10;tabWidth=40;tabHeight=14;tabPosition=left;html=1;" vertex="1" parent="1">
          <mxGeometry x="120" y="40" width="70" height="50" as="geometry" />
        </mxCell>
        <mxCell id="B5fJH4kxP5eTqqaV1vvk-2" value="VisÃ£o" style="shape=folder;fontStyle=1;spacingTop=10;tabWidth=40;tabHeight=14;tabPosition=left;html=1;" vertex="1" parent="1">
          <mxGeometry x="360" y="40" width="70" height="50" as="geometry" />
        </mxCell>
        <mxCell id="B5fJH4kxP5eTqqaV1vvk-3" value="Controller" style="shape=folder;fontStyle=1;spacingTop=10;tabWidth=40;tabHeight=14;tabPosition=left;html=1;" vertex="1" parent="1">
          <mxGeometry x="360" y="150" width="70" height="50" as="geometry" />
        </mxCell>
        <mxCell id="B5fJH4kxP5eTqqaV1vvk-4" value="Repository" style="shape=folder;fontStyle=1;spacingTop=10;tabWidth=40;tabHeight=14;tabPosition=left;html=1;" vertex="1" parent="1">
          <mxGeometry x="120" y="150" width="70" height="50" as="geometry" />
        </mxCell>
      </root>
    </mxGraphModel>
  </diagram>
</mxfile>
